<svg width="362" height="102" viewBox="0 0 362 102" fill="none" xmlns="http://www.w3.org/2000/svg">
<rect opacity="0.2" width="362" height="102" fill="#293B4B"/>
<rect width="362" height="1" fill="white" fill-opacity="0.5"/>
<rect y="101" width="362" height="1" fill="white" fill-opacity="0.5"/>
<rect y="1" width="24" height="3" fill="white" fill-opacity="0.5"/>
<rect y="98" width="24" height="3" fill="white" fill-opacity="0.5"/>
<rect x="338" y="1" width="24" height="3" fill="white" fill-opacity="0.5"/>
<rect x="338" y="98" width="24" height="3" fill="white" fill-opacity="0.5"/>
<path d="M43.0186 51.3535C43.0186 52.3278 42.8317 53.242 42.458 54.0962C42.0977 54.9504 41.5972 55.6978 40.9565 56.3384C40.3159 56.979 39.5685 57.4862 38.7144 57.8599C37.8602 58.2202 36.946 58.4004 35.9717 58.4004H33.9297C32.9554 58.4004 32.0345 58.2202 31.167 57.8599C30.3128 57.4862 29.5654 56.979 28.9248 56.3384C28.2842 55.6978 27.777 54.9504 27.4033 54.0962C27.043 53.242 26.8628 52.3278 26.8628 51.3535V35.9385C26.8628 34.9642 27.043 34.05 27.4033 33.1958C27.777 32.3416 28.2842 31.5942 28.9248 30.9536C29.5654 30.313 30.3128 29.8125 31.167 29.4521C32.0345 29.0785 32.9554 28.8916 33.9297 28.8916H35.9717C36.946 28.8916 37.8602 29.0785 38.7144 29.4521C39.5685 29.8125 40.3159 30.313 40.9565 30.9536C41.5972 31.5942 42.0977 32.3416 42.458 33.1958C42.8317 34.05 43.0186 34.9642 43.0186 35.9385V37.0996L40.436 37.5V35.9385C40.436 35.2979 40.3159 34.7039 40.0757 34.1567C39.8354 33.5962 39.5085 33.109 39.0947 32.6953C38.681 32.2816 38.1938 31.9546 37.6333 31.7144C37.0861 31.4741 36.4922 31.354 35.8516 31.354H34.0498C33.4092 31.354 32.8086 31.4741 32.248 31.7144C31.7008 31.9546 31.2137 32.2816 30.7866 32.6953C30.3729 33.109 30.0459 33.5962 29.8057 34.1567C29.5654 34.7039 29.4453 35.2979 29.4453 35.9385V51.3535C29.4453 51.9941 29.5654 52.5947 29.8057 53.1553C30.0459 53.7025 30.3729 54.1896 30.7866 54.6167C31.2137 55.0304 31.7008 55.3574 32.248 55.5977C32.8086 55.8379 33.4092 55.958 34.0498 55.958H35.8516C36.4922 55.958 37.0861 55.8379 37.6333 55.5977C38.1938 55.3574 38.681 55.0304 39.0947 54.6167C39.5085 54.1896 39.8354 53.7025 40.0757 53.1553C40.3159 52.5947 40.436 51.9941 40.436 51.3535V49.792L43.0186 50.2124V51.3535ZM58.4624 58V44.8872H47.4717V58H44.8892V29.292H47.4717V42.4248H58.4624V29.292H61.0449V58H58.4624ZM79.4717 51.3535C79.4717 52.3278 79.2849 53.242 78.9112 54.0962C78.5508 54.9504 78.0503 55.6978 77.4097 56.3384C76.7691 56.979 76.0217 57.4862 75.1675 57.8599C74.3134 58.2202 73.3991 58.4004 72.4248 58.4004H70.3829C69.4086 58.4004 68.4877 58.2202 67.6202 57.8599C66.766 57.4862 66.0186 56.979 65.378 56.3384C64.7373 55.6978 64.2302 54.9504 63.8565 54.0962C63.4961 53.242 63.316 52.3278 63.316 51.3535V35.9385C63.316 34.9642 63.4961 34.05 63.8565 33.1958C64.2302 32.3416 64.7373 31.5942 65.378 30.9536C66.0186 30.313 66.766 29.8125 67.6202 29.4521C68.4877 29.0785 69.4086 28.8916 70.3829 28.8916H72.4248C73.3991 28.8916 74.3134 29.0785 75.1675 29.4521C76.0217 29.8125 76.7691 30.313 77.4097 30.9536C78.0503 31.5942 78.5508 32.3416 78.9112 33.1958C79.2849 34.05 79.4717 34.9642 79.4717 35.9385V51.3535ZM76.8892 35.9385C76.8892 35.2979 76.7691 34.7039 76.5288 34.1567C76.2886 33.5962 75.9616 33.109 75.5479 32.6953C75.1342 32.2816 74.647 31.9546 74.0865 31.7144C73.5393 31.4741 72.9454 31.354 72.3047 31.354H70.503C69.8623 31.354 69.2618 31.4741 68.7012 31.7144C68.154 31.9546 67.6669 32.2816 67.2398 32.6953C66.826 33.109 66.4991 33.5962 66.2588 34.1567C66.0186 34.7039 65.8985 35.2979 65.8985 35.9385V51.3535C65.8985 51.9941 66.0186 52.5947 66.2588 53.1553C66.4991 53.7025 66.826 54.1896 67.2398 54.6167C67.6669 55.0304 68.154 55.3574 68.7012 55.5977C69.2618 55.8379 69.8623 55.958 70.503 55.958H72.3047C72.9454 55.958 73.5393 55.8379 74.0865 55.5977C74.647 55.3574 75.1342 55.0304 75.5479 54.6167C75.9616 54.1896 76.2886 53.7025 76.5288 53.1553C76.7691 52.5947 76.8892 51.9941 76.8892 51.3535V35.9385ZM97.4781 51.3535C97.4781 52.3278 97.2912 53.242 96.9175 54.0962C96.5572 54.9504 96.0567 55.6978 95.4161 56.3384C94.7754 56.979 94.0281 57.4862 93.1739 57.8599C92.3197 58.2202 91.4055 58.4004 90.4312 58.4004H88.3892C87.4149 58.4004 86.494 58.2202 85.6265 57.8599C84.7724 57.4862 84.025 56.979 83.3843 56.3384C82.7437 55.6978 82.2365 54.9504 81.8629 54.0962C81.5025 53.242 81.3223 52.3278 81.3223 51.3535V35.9385C81.3223 34.9642 81.5025 34.05 81.8629 33.1958C82.2365 32.3416 82.7437 31.5942 83.3843 30.9536C84.025 30.313 84.7724 29.8125 85.6265 29.4521C86.494 29.0785 87.4149 28.8916 88.3892 28.8916H90.4312C91.4055 28.8916 92.3197 29.0785 93.1739 29.4521C94.0281 29.8125 94.7754 30.313 95.4161 30.9536C96.0567 31.5942 96.5572 32.3416 96.9175 33.1958C97.2912 34.05 97.4781 34.9642 97.4781 35.9385V51.3535ZM94.8956 35.9385C94.8956 35.2979 94.7754 34.7039 94.5352 34.1567C94.295 33.5962 93.968 33.109 93.5543 32.6953C93.1405 32.2816 92.6534 31.9546 92.0928 31.7144C91.5456 31.4741 90.9517 31.354 90.3111 31.354H88.5093C87.8687 31.354 87.2681 31.4741 86.7076 31.7144C86.1604 31.9546 85.6732 32.2816 85.2462 32.6953C84.8324 33.109 84.5054 33.5962 84.2652 34.1567C84.025 34.7039 83.9048 35.2979 83.9048 35.9385V51.3535C83.9048 51.9941 84.025 52.5947 84.2652 53.1553C84.5054 53.7025 84.8324 54.1896 85.2462 54.6167C85.6732 55.0304 86.1604 55.3574 86.7076 55.5977C87.2681 55.8379 87.8687 55.958 88.5093 55.958H90.3111C90.9517 55.958 91.5456 55.8379 92.0928 55.5977C92.6534 55.3574 93.1405 55.0304 93.5543 54.6167C93.968 54.1896 94.295 53.7025 94.5352 53.1553C94.7754 52.5947 94.8956 51.9941 94.8956 51.3535V35.9385ZM115.484 51.3535C115.484 52.3278 115.284 53.242 114.884 54.0962C114.497 54.9504 113.97 55.6978 113.302 56.3384C112.648 56.979 111.881 57.4862 111 57.8599C110.133 58.2202 109.212 58.4004 108.237 58.4004H106.175C105.201 58.4004 104.274 58.2202 103.393 57.8599C102.525 57.4862 101.758 56.979 101.09 56.3384C100.436 55.6978 99.9093 54.9504 99.5089 54.0962C99.1218 53.242 98.9283 52.3278 98.9283 51.3535V50.2124L101.511 49.792V51.3535C101.511 51.9941 101.638 52.5947 101.891 53.1553C102.158 53.7025 102.512 54.1896 102.952 54.6167C103.393 55.0304 103.9 55.3574 104.474 55.5977C105.061 55.8379 105.675 55.958 106.316 55.958H108.117C108.758 55.958 109.365 55.8379 109.939 55.5977C110.513 55.3574 111.02 55.0304 111.461 54.6167C111.901 54.1896 112.248 53.7025 112.502 53.1553C112.768 52.5947 112.902 51.9941 112.902 51.3535V50.4927C112.902 49.505 112.708 48.6842 112.321 48.0303C111.934 47.3763 111.42 46.8224 110.78 46.3687C110.139 45.9015 109.412 45.5078 108.598 45.1875C107.797 44.8672 106.969 44.5469 106.115 44.2266C105.261 43.9062 104.427 43.5526 103.613 43.1655C102.812 42.7785 102.091 42.298 101.451 41.7241C100.81 41.1369 100.296 40.4229 99.9093 39.582C99.5222 38.7412 99.3287 37.7069 99.3287 36.479V35.9385C99.3287 34.9642 99.5089 34.05 99.8692 33.1958C100.243 32.3416 100.75 31.5942 101.391 30.9536C102.031 30.313 102.779 29.8125 103.633 29.4521C104.5 29.0785 105.421 28.8916 106.396 28.8916H108.237C109.212 28.8916 110.126 29.0785 110.98 29.4521C111.834 29.8125 112.582 30.313 113.222 30.9536C113.863 31.5942 114.363 32.3416 114.724 33.1958C115.097 34.05 115.284 34.9642 115.284 35.9385V36.6792L112.702 37.0996V35.9385C112.702 35.2979 112.582 34.7039 112.341 34.1567C112.101 33.5962 111.774 33.109 111.36 32.6953C110.947 32.2816 110.46 31.9546 109.899 31.7144C109.352 31.4741 108.758 31.354 108.117 31.354H106.516C105.875 31.354 105.274 31.4741 104.714 31.7144C104.167 31.9546 103.68 32.2816 103.253 32.6953C102.839 33.109 102.512 33.5962 102.272 34.1567C102.031 34.7039 101.911 35.2979 101.911 35.9385V36.479C101.911 37.3999 102.105 38.174 102.492 38.8013C102.879 39.4285 103.393 39.9691 104.033 40.4229C104.674 40.8633 105.395 41.2503 106.195 41.584C107.01 41.9043 107.844 42.238 108.698 42.585C109.552 42.9186 110.379 43.2923 111.18 43.7061C111.994 44.1064 112.722 44.6069 113.362 45.2075C114.003 45.7948 114.517 46.5155 114.904 47.3696C115.291 48.2238 115.484 49.2648 115.484 50.4927V51.3535ZM117.155 58V29.292H133.311V31.7544H119.737V42.4248H130.728V44.8872H119.737V55.5376H133.311V58H117.155ZM157.29 51.3535C157.29 52.3278 157.103 53.242 156.729 54.0962C156.369 54.9504 155.869 55.6978 155.228 56.3384C154.587 56.979 153.84 57.4862 152.986 57.8599C152.132 58.2202 151.217 58.4004 150.243 58.4004H148.201C147.227 58.4004 146.306 58.2202 145.438 57.8599C144.584 57.4862 143.837 56.979 143.196 56.3384C142.556 55.6978 142.049 54.9504 141.675 54.0962C141.314 53.242 141.134 52.3278 141.134 51.3535V35.9385C141.134 34.9642 141.314 34.05 141.675 33.1958C142.049 32.3416 142.556 31.5942 143.196 30.9536C143.837 30.313 144.584 29.8125 145.438 29.4521C146.306 29.0785 147.227 28.8916 148.201 28.8916H150.243C151.217 28.8916 152.132 29.0785 152.986 29.4521C153.84 29.8125 154.587 30.313 155.228 30.9536C155.869 31.5942 156.369 32.3416 156.729 33.1958C157.103 34.05 157.29 34.9642 157.29 35.9385V37.0996L154.708 37.5V35.9385C154.708 35.2979 154.587 34.7039 154.347 34.1567C154.107 33.5962 153.78 33.109 153.366 32.6953C152.952 32.2816 152.465 31.9546 151.905 31.7144C151.358 31.4741 150.764 31.354 150.123 31.354H148.321C147.681 31.354 147.08 31.4741 146.52 31.7144C145.972 31.9546 145.485 32.2816 145.058 32.6953C144.644 33.109 144.317 33.5962 144.077 34.1567C143.837 34.7039 143.717 35.2979 143.717 35.9385V51.3535C143.717 51.9941 143.837 52.5947 144.077 53.1553C144.317 53.7025 144.644 54.1896 145.058 54.6167C145.485 55.0304 145.972 55.3574 146.52 55.5977C147.08 55.8379 147.681 55.958 148.321 55.958H150.123C150.764 55.958 151.358 55.8379 151.905 55.5977C152.465 55.3574 152.952 55.0304 153.366 54.6167C153.78 54.1896 154.107 53.7025 154.347 53.1553C154.587 52.5947 154.708 51.9941 154.708 51.3535V49.792L157.29 50.2124V51.3535ZM174.374 58V44.8872H163.383V58H160.801V29.292H163.383V42.4248H174.374V29.292H176.956V58H174.374ZM192.058 51.3135H182.969L181.088 58H178.405L186.813 29.292H188.175L196.623 58H193.96L192.058 51.3135ZM183.67 48.8511H191.378L187.594 35.6182L187.514 34.5571L187.434 35.6182L183.67 48.8511ZM211.545 58L203.757 45.748H200.214V58H197.631V29.292H206.74C207.714 29.292 208.628 29.4788 209.483 29.8525C210.337 30.2129 211.084 30.7134 211.725 31.354C212.365 31.9946 212.866 32.7487 213.226 33.6162C213.6 34.4704 213.787 35.3846 213.787 36.3589V38.6812C213.787 39.6554 213.6 40.5763 213.226 41.4438C212.866 42.298 212.365 43.0454 211.725 43.686C211.084 44.3267 210.337 44.8338 209.483 45.2075C208.628 45.5679 207.714 45.748 206.74 45.748L214.527 58H211.545ZM211.204 36.3589C211.204 35.7183 211.084 35.1243 210.844 34.5771C210.604 34.0166 210.277 33.5295 209.863 33.1157C209.449 32.6886 208.962 32.355 208.402 32.1147C207.854 31.8745 207.26 31.7544 206.62 31.7544H200.214V43.2856H206.62C207.26 43.2856 207.854 43.1655 208.402 42.9253C208.962 42.6851 209.449 42.3581 209.863 41.9443C210.277 41.5173 210.604 41.0301 210.844 40.4829C211.084 39.9224 211.204 39.3218 211.204 38.6812V36.3589ZM227.988 51.3135H218.899L217.017 58H214.334L222.743 29.292H224.104L232.552 58H229.89L227.988 51.3135ZM219.6 48.8511H227.307L223.523 35.6182L223.443 34.5571L223.363 35.6182L219.6 48.8511ZM249.716 51.3535C249.716 52.3278 249.529 53.242 249.156 54.0962C248.795 54.9504 248.295 55.6978 247.654 56.3384C247.014 56.979 246.266 57.4862 245.412 57.8599C244.558 58.2202 243.644 58.4004 242.669 58.4004H240.627C239.653 58.4004 238.732 58.2202 237.865 57.8599C237.01 57.4862 236.263 56.979 235.622 56.3384C234.982 55.6978 234.475 54.9504 234.101 54.0962C233.741 53.242 233.56 52.3278 233.56 51.3535V35.9385C233.56 34.9642 233.741 34.05 234.101 33.1958C234.475 32.3416 234.982 31.5942 235.622 30.9536C236.263 30.313 237.01 29.8125 237.865 29.4521C238.732 29.0785 239.653 28.8916 240.627 28.8916H242.669C243.644 28.8916 244.558 29.0785 245.412 29.4521C246.266 29.8125 247.014 30.313 247.654 30.9536C248.295 31.5942 248.795 32.3416 249.156 33.1958C249.529 34.05 249.716 34.9642 249.716 35.9385V37.0996L247.134 37.5V35.9385C247.134 35.2979 247.014 34.7039 246.773 34.1567C246.533 33.5962 246.206 33.109 245.792 32.6953C245.379 32.2816 244.892 31.9546 244.331 31.7144C243.784 31.4741 243.19 31.354 242.549 31.354H240.747C240.107 31.354 239.506 31.4741 238.946 31.7144C238.399 31.9546 237.911 32.2816 237.484 32.6953C237.071 33.109 236.744 33.5962 236.503 34.1567C236.263 34.7039 236.143 35.2979 236.143 35.9385V51.3535C236.143 51.9941 236.263 52.5947 236.503 53.1553C236.744 53.7025 237.071 54.1896 237.484 54.6167C237.911 55.0304 238.399 55.3574 238.946 55.5977C239.506 55.8379 240.107 55.958 240.747 55.958H242.549C243.19 55.958 243.784 55.8379 244.331 55.5977C244.892 55.3574 245.379 55.0304 245.792 54.6167C246.206 54.1896 246.533 53.7025 246.773 53.1553C247.014 52.5947 247.134 51.9941 247.134 51.3535V49.792L249.716 50.2124V51.3535ZM260.194 31.7544V58H257.611V31.7544H250.764V29.292H267.04V31.7544H260.194ZM268.909 58V29.292H285.065V31.7544H271.492V42.4248H282.483V44.8872H271.492V55.5376H285.065V58H268.909ZM301.248 58L293.46 45.748H289.917V58H287.335V29.292H296.443C297.418 29.292 298.332 29.4788 299.186 29.8525C300.04 30.2129 300.788 30.7134 301.428 31.354C302.069 31.9946 302.569 32.7487 302.93 33.6162C303.303 34.4704 303.49 35.3846 303.49 36.3589V38.6812C303.49 39.6554 303.303 40.5763 302.93 41.4438C302.569 42.298 302.069 43.0454 301.428 43.686C300.788 44.3267 300.04 44.8338 299.186 45.2075C298.332 45.5679 297.418 45.748 296.443 45.748L304.231 58H301.248ZM300.908 36.3589C300.908 35.7183 300.788 35.1243 300.547 34.5771C300.307 34.0166 299.98 33.5295 299.566 33.1157C299.153 32.6886 298.666 32.355 298.105 32.1147C297.558 31.8745 296.964 31.7544 296.323 31.7544H289.917V43.2856H296.323C296.964 43.2856 297.558 43.1655 298.105 42.9253C298.666 42.6851 299.153 42.3581 299.566 41.9443C299.98 41.5173 300.307 41.0301 300.547 40.4829C300.788 39.9224 300.908 39.3218 300.908 38.6812V36.3589Z" fill="white"/>
<path d="M26.472 75.28H34.072L36.304 77.8V78.208H34.336L33.44 77.016H27.136L26.2 78.208H24.24V77.8L26.472 75.28ZM27.84 78.184H32.904V80.04H27.84V78.184ZM24.216 80.256H26.184L27.104 81.288H33.424L34.328 80.272H36.288V80.632L34.056 83.008H26.448L24.216 80.632V80.256ZM46.4833 75.224H48.2913V76.752H53.1793L55.6753 75.224H59.3073L53.1793 78.552H46.4833V75.224ZM46.4833 79.672H53.3793L59.3873 83H55.9873L53.0433 81.472H48.2673V83H46.4833V79.672ZM78.8236 75.28L78.7996 75.416L72.3676 83H70.0316L72.6556 80.04H69.8076L71.0236 78.264H74.1996L75.2396 77.056L69.3916 77.048L70.5356 75.28H78.8236ZM100.29 75.2L100.266 75.336L96.0815 83H89.2655V75.2H90.7295V81.2H95.2175L97.4575 76.864V76.816H93.7135V77.288H92.2255V75.2H100.29ZM122.138 75.216V77.008H120.946V83H119.33V77.008H119.106L116.258 83H114.186L110.45 75.216H112.458L115.242 80.784L117.938 75.216H122.138ZM135.833 75.224L141.745 81.152V75.224H143.409V83H141.129L133.345 75.224H135.833ZM132.697 79.304L138.745 81.496L138.209 83L132.137 80.848L132.697 79.304Z" fill="#788596"/>
<path d="M334.243 23L353.486 42.2193H343.378L334.243 32.2447L324.135 42.2193H315L334.243 23Z" fill="white" fill-opacity="0.5"/>
<path d="M334.243 65.25L315 46.0307L325.108 46.0307L334.243 56.0053L344.351 46.0307L353.486 46.0307L334.243 65.25Z" fill="white" fill-opacity="0.5"/>
</svg>
