<svg width="362" height="102" viewBox="0 0 362 102" fill="none" xmlns="http://www.w3.org/2000/svg">
<rect opacity="0.2" width="362" height="102" fill="#293B4B"/>
<rect width="362" height="1" fill="white" fill-opacity="0.5"/>
<rect y="101" width="362" height="1" fill="white" fill-opacity="0.5"/>
<rect y="1" width="24" height="3" fill="white" fill-opacity="0.5"/>
<rect y="98" width="24" height="3" fill="white" fill-opacity="0.5"/>
<rect x="338" y="1" width="24" height="3" fill="white" fill-opacity="0.5"/>
<rect x="338" y="98" width="24" height="3" fill="white" fill-opacity="0.5"/>
<path d="M105.548 59.396C102.884 59.396 100.64 58.28 98.816 56.048C96.992 53.816 96.08 51.08 96.08 47.84C96.08 43.88 97.172 40.544 99.356 37.832C101.564 35.12 104.264 33.764 107.456 33.764C108.704 33.764 109.856 33.896 110.912 34.16C111.992 34.4 112.76 34.652 113.216 34.916L113.864 35.312L111.416 40.316C110.864 39.836 110.084 39.392 109.076 38.984C108.068 38.552 107.156 38.336 106.34 38.336C104.684 38.336 103.352 39.02 102.344 40.388C101.36 41.756 100.868 43.712 100.868 46.256C100.868 48.776 101.384 50.852 102.416 52.484C103.448 54.092 104.852 54.896 106.628 54.896C107.78 54.896 108.824 54.536 109.76 53.816C110.696 53.096 111.356 52.136 111.74 50.936L114.728 52.664C113.936 54.776 112.724 56.432 111.092 57.632C109.46 58.808 107.612 59.396 105.548 59.396ZM131.388 33.8C134.22 33.8 136.548 34.88 138.372 37.04C140.22 39.2 141.144 41.948 141.144 45.284C141.144 49.508 140.052 52.916 137.868 55.508C135.684 58.1 132.816 59.396 129.264 59.396C126.504 59.396 124.188 58.292 122.316 56.084C120.444 53.852 119.508 51.104 119.508 47.84C119.508 43.76 120.624 40.4 122.856 37.76C125.088 35.12 127.932 33.8 131.388 33.8ZM136.248 47.3C136.248 41.228 134.256 38.192 130.272 38.192C128.448 38.192 127.008 38.876 125.952 40.244C124.92 41.588 124.404 43.616 124.404 46.328C124.404 49.016 124.956 51.236 126.06 52.988C127.188 54.716 128.664 55.58 130.488 55.58C132.336 55.58 133.752 54.848 134.736 53.384C135.744 51.896 136.248 49.868 136.248 47.3ZM159.149 47.768H159.509L164.765 34.088L169.733 34.232L169.877 49.712L170.561 59H165.701L165.881 49.64L165.485 40.172L161.165 52.088L156.737 52.304L152.705 40.172L152.381 49.64L152.633 59H148.169L148.673 50.252L148.889 34.808L154.613 33.908L159.149 47.768ZM187.015 34.16C189.319 34.16 191.155 34.82 192.523 36.14C193.891 37.436 194.575 39.224 194.575 41.504C194.575 43.784 193.711 45.74 191.983 47.372C190.255 48.98 188.143 49.784 185.647 49.784H183.595L184.027 59H179.203L179.635 50.252L179.203 34.16H187.015ZM185.719 37.796H183.955L183.703 46.292H186.151C187.351 46.292 188.275 45.896 188.923 45.104C189.595 44.312 189.931 43.184 189.931 41.72C189.931 39.104 188.527 37.796 185.719 37.796ZM215.664 59.18L213.9 52.16H205.296L203.388 59L198.78 58.64L201.948 49.892L206.772 34.412L213.216 33.944L217.86 49.352L220.848 58.388L215.664 59.18ZM209.976 38.624H209.508L206.412 48.344H212.82L209.976 38.624ZM234.297 49.424H232.245V49.64L232.677 59H227.853L228.285 50.252L227.853 34.16H235.665C237.969 34.16 239.805 34.784 241.173 36.032C242.541 37.28 243.225 38.936 243.225 41C243.225 42.56 242.817 43.988 242.001 45.284C241.209 46.556 240.129 47.564 238.761 48.308L245.025 57.164L240.669 59.396L235.053 49.388C234.885 49.412 234.633 49.424 234.297 49.424ZM234.369 37.796H232.605L232.353 45.932H234.801C236.001 45.932 236.925 45.536 237.573 44.744C238.245 43.952 238.581 42.824 238.581 41.36C238.581 38.984 237.177 37.796 234.369 37.796ZM252.3 59L252.732 50.252L252.3 34.16H265.8L265.404 38.012H257.304L257.088 44.384H264.288L263.892 48.2H256.944L256.908 49.64L257.16 55.184H265.872L265.476 59H252.3Z" fill="white"/>
<path d="M123.57 69.28H131.17L133.402 71.8V72.208H131.434L130.538 71.016H124.234L123.298 72.208H121.338V71.8L123.57 69.28ZM124.938 72.184H130.002V74.04H124.938V72.184ZM121.314 74.256H123.282L124.202 75.288H130.522L131.426 74.272H133.386V74.632L131.154 77.008H123.546L121.314 74.632V74.256ZM143.581 69.224H145.389V70.752H150.277L152.773 69.224H156.405L150.277 72.552H143.581V69.224ZM143.581 73.672H150.477L156.485 77H153.085L150.141 75.472H145.365V77H143.581V73.672ZM175.921 69.28L175.897 69.416L169.465 77H167.129L169.753 74.04H166.905L168.121 72.264H171.297L172.337 71.056L166.489 71.048L167.633 69.28H175.921ZM197.387 69.2L197.363 69.336L193.179 77H186.363V69.2H187.827V75.2H192.315L194.555 70.864V70.816H190.811V71.288H189.323V69.2H197.387ZM219.236 69.216V71.008H218.044V77H216.428V71.008H216.204L213.356 77H211.284L207.548 69.216H209.556L212.34 74.784L215.036 69.216H219.236ZM232.93 69.224L238.842 75.152V69.224H240.506V77H238.226L230.442 69.224H232.93ZM229.794 73.304L235.842 75.496L235.306 77L229.234 74.848L229.794 73.304Z" fill="#788596"/>
</svg>
