<svg width="362" height="102" viewBox="0 0 362 102" fill="none" xmlns="http://www.w3.org/2000/svg">
<rect opacity="0.2" width="362" height="102" fill="#293B4B"/>
<rect width="362" height="1" fill="white" fill-opacity="0.5"/>
<rect y="101" width="362" height="1" fill="white" fill-opacity="0.5"/>
<rect y="1" width="24" height="3" fill="white" fill-opacity="0.5"/>
<rect y="98" width="24" height="3" fill="white" fill-opacity="0.5"/>
<rect x="338" y="1" width="24" height="3" fill="white" fill-opacity="0.5"/>
<rect x="338" y="98" width="24" height="3" fill="white" fill-opacity="0.5"/>
<path d="M106.556 59.396C103.412 59.396 100.88 58.34 98.96 56.228C97.04 54.116 96.08 51.32 96.08 47.84C96.08 43.88 97.28 40.544 99.68 37.832C102.08 35.12 105.032 33.764 108.536 33.764C109.928 33.764 111.212 33.896 112.388 34.16C113.588 34.4 114.44 34.652 114.944 34.916L115.664 35.312L113.576 40.316C112.856 39.836 111.884 39.392 110.66 38.984C109.436 38.552 108.356 38.336 107.42 38.336C105.476 38.336 103.916 39.02 102.74 40.388C101.564 41.756 100.976 43.568 100.976 45.824C100.976 48.872 101.528 51.248 102.632 52.952C103.76 54.656 105.32 55.508 107.312 55.508C108.608 55.508 109.832 55.328 110.984 54.968V49.388H106.34L106.7 45.752H115.34L115.016 51.62L115.268 57.848C111.74 58.88 108.836 59.396 106.556 59.396ZM124.367 59L124.799 50.252L124.367 34.16H137.867L137.471 38.012H129.371L129.155 44.384H136.355L135.959 48.2H129.011L128.975 49.64L129.227 55.184H137.939L137.543 59H124.367ZM142.805 38.3L143.201 34.16H160.301L159.905 38.3L153.641 37.76L153.497 49.64L153.929 59H148.889L149.321 50.252L149.177 37.796L142.805 38.3ZM183.328 59.396C181.624 59.396 179.164 59.264 175.948 59L176.38 50.252L175.948 34.16H185.56C188.8 34.16 191.332 35.132 193.156 37.076C194.98 39.02 195.892 41.72 195.892 45.176C195.892 49.544 194.764 53.012 192.508 55.58C190.252 58.124 187.192 59.396 183.328 59.396ZM184.264 38.048C182.68 38.048 181.564 38.06 180.916 38.084L180.556 49.64L180.808 55.472C182.824 55.616 184.18 55.688 184.876 55.688C186.772 55.688 188.26 54.92 189.34 53.384C190.444 51.848 190.996 49.616 190.996 46.688C190.996 43.76 190.456 41.588 189.376 40.172C188.32 38.756 186.616 38.048 184.264 38.048ZM217.998 59.18L216.234 52.16H207.63L205.722 59L201.114 58.64L204.282 49.892L209.106 34.412L215.55 33.944L220.194 49.352L223.182 58.388L217.998 59.18ZM212.31 38.624H211.842L208.746 48.344H215.154L212.31 38.624ZM227.307 38.3L227.703 34.16H244.803L244.407 38.3L238.143 37.76L237.999 49.64L238.431 59H233.391L233.823 50.252L233.679 37.796L227.307 38.3ZM265.839 59.18L264.075 52.16H255.471L253.563 59L248.955 58.64L252.123 49.892L256.947 34.412L263.391 33.944L268.035 49.352L271.023 58.388L265.839 59.18ZM260.151 38.624H259.683L256.587 48.344H262.995L260.151 38.624Z" fill="white"/>
<path d="M123.57 69.28H131.17L133.402 71.8V72.208H131.434L130.538 71.016H124.234L123.298 72.208H121.338V71.8L123.57 69.28ZM124.938 72.184H130.002V74.04H124.938V72.184ZM121.314 74.256H123.282L124.202 75.288H130.522L131.426 74.272H133.386V74.632L131.154 77.008H123.546L121.314 74.632V74.256ZM143.581 69.224H145.389V70.752H150.277L152.773 69.224H156.405L150.277 72.552H143.581V69.224ZM143.581 73.672H150.477L156.485 77H153.085L150.141 75.472H145.365V77H143.581V73.672ZM175.921 69.28L175.897 69.416L169.465 77H167.129L169.753 74.04H166.905L168.121 72.264H171.297L172.337 71.056L166.489 71.048L167.633 69.28H175.921ZM197.387 69.2L197.363 69.336L193.179 77H186.363V69.2H187.827V75.2H192.315L194.555 70.864V70.816H190.811V71.288H189.323V69.2H197.387ZM219.236 69.216V71.008H218.044V77H216.428V71.008H216.204L213.356 77H211.284L207.548 69.216H209.556L212.34 74.784L215.036 69.216H219.236ZM232.93 69.224L238.842 75.152V69.224H240.506V77H238.226L230.442 69.224H232.93ZM229.794 73.304L235.842 75.496L235.306 77L229.234 74.848L229.794 73.304Z" fill="#788596"/>
</svg>
